HIERARCHY
ROOT root
{
	OFFSET 0.000000 0.000000 0.000000
	CHANNELS 6 Xposition Yposition Zposition Zrotation Yrotation Xrotation
	JOINT lhip
	{
		OFFSET 0.058581 -0.082280 -0.017664
		CHANNELS 3 Zrotation Yrotation Xrotation
		JOINT lknee
		{
			OFFSET 0.043451 -0.386469 0.008037
			CHANNELS 3 Zrotation Yrotation Xrotation
			JOINT lankle
			{
				OFFSET -0.014790 -0.426874 -0.037428
				CHANNELS 3 Zrotation Yrotation Xrotation
				JOINT ltoe
				{
					OFFSET 0.041054 -0.060286 0.122042
					CHANNELS 3 Zrotation Yrotation Xrotation
					End Site
					{
						OFFSET 0.000000 0.000000 0.000000
					}
				}
			}
		}
	}
	JOINT rhip
	{
		OFFSET -0.060310 -0.090513 -0.013543
		CHANNELS 3 Zrotation Yrotation Xrotation
		JOINT rknee
		{
			OFFSET -0.043257 -0.383688 -0.004843
			CHANNELS 3 Zrotation Yrotation Xrotation
			JOINT rankle
			{
				OFFSET 0.019056 -0.420046 -0.034562
				CHANNELS 3 Zrotation Yrotation Xrotation
				JOINT rtoe
				{
					OFFSET -0.034840 -0.062106 0.130323
					CHANNELS 3 Zrotation Yrotation Xrotation
					End Site
					{
						OFFSET 0.000000 0.000000 0.000000
					}
				}
			}
		}
	}
	JOINT lowerback
	{
		OFFSET 0.004439 0.124404 -0.038385
		CHANNELS 3 Zrotation Yrotation Xrotation
		JOINT upperback
		{
			OFFSET 0.004488 0.137956 0.026820
			CHANNELS 3 Zrotation Yrotation Xrotation
			JOINT chest
			{
				OFFSET -0.002265 0.056032 0.002855
				CHANNELS 3 Zrotation Yrotation Xrotation
				JOINT lowerneck
				{
					OFFSET -0.013390 0.211636 -0.033468
					CHANNELS 3 Zrotation Yrotation Xrotation
					JOINT upperneck
					{
						OFFSET 0.010113 0.088937 0.050410
						CHANNELS 3 Zrotation Yrotation Xrotation
						End Site
						{
							OFFSET 0.000000 0.000000 0.000000
						}
					}
				}
				JOINT lclavicle
				{
					OFFSET 0.071702 0.114000 -0.018898
					CHANNELS 3 Zrotation Yrotation Xrotation
					JOINT lshoulder
					{
						OFFSET 0.122921 0.045205 -0.019046
						CHANNELS 3 Zrotation Yrotation Xrotation
						JOINT lelbow
						{
							OFFSET 0.255332 -0.015649 -0.022946
							CHANNELS 3 Zrotation Yrotation Xrotation
							JOINT lwrist
							{
								OFFSET 0.265709 0.012698 -0.007375
								CHANNELS 3 Zrotation Yrotation Xrotation
								End Site
								{
									OFFSET 0.000000 0.000000 0.000000
								}
							}
						}
					}
				}
				JOINT rclavicle
				{
					OFFSET -0.082954 0.112472 -0.023707
					CHANNELS 3 Zrotation Yrotation Xrotation
					JOINT rshoulder
					{
						OFFSET -0.113228 0.046853 -0.008472
						CHANNELS 3 Zrotation Yrotation Xrotation
						JOINT relbow
						{
							OFFSET -0.260127 -0.014369 -0.031269
							CHANNELS 3 Zrotation Yrotation Xrotation
							JOINT rwrist
							{
								OFFSET -0.269108 0.006794 -0.006027
								CHANNELS 3 Zrotation Yrotation Xrotation
								End Site
								{
									OFFSET 0.000000 0.000000 0.000000
								}
							}
						}
					}
				}
			}
		}
	}
}
MOTION
Frames: 7
Frame Time: 0.033333
-0.084029 -0.596888 0.921373 168.829981 1.116842 88.382059 2.492779 0.023177 -25.947307 -7.249877 4.829850 46.072947 6.279207 16.295750 -26.585700 0.000000 -0.000000 0.000000 5.011693 7.476397 -32.523521 1.712543 4.708199 53.378220 1.030293 -7.653857 -22.795016 0.000000 -0.000000 0.000000 -6.000338 -2.523343 29.407062 2.533614 -7.283166 -3.010956 1.467789 -3.506527 1.920021 -3.180768 17.396138 -5.125022 3.263938 9.743494 -2.817397 -10.880533 -21.937388 -6.016404 -24.828633 -33.922167 -5.067047 38.898467 -47.496462 -35.058465 8.804091 -3.597414 -18.645811 20.254301 10.192340 0.122937 56.415808 -1.473207 19.091823 -6.264289 39.047174 19.708576 14.026420 1.783698 -1.116644 
-0.083262 -0.599075 0.920287 168.991475 1.010838 88.345142 2.540018 -0.057196 -26.203261 -7.300401 4.955996 46.308784 6.229422 16.133492 -26.591073 0.000000 -0.000000 0.000000 4.951996 7.647435 -32.893383 1.474772 4.471668 53.837075 1.019747 -7.630556 -22.658760 0.000000 -0.000000 0.000000 -6.153931 -2.453174 29.922501 2.512838 -7.390843 -2.994016 1.458321 -3.504769 1.846487 -3.241706 17.512379 -5.421689 3.264051 9.630226 -3.109446 -10.745456 -22.168501 -6.182941 -24.408902 -33.982771 -5.325196 39.224273 -47.600127 -35.483685 9.229624 -3.787020 -18.573473 20.220242 10.345566 -0.053339 56.584483 -1.514939 19.369623 -6.320021 40.123310 19.809912 13.465260 1.996474 -1.304805 
-0.081993 -0.601514 0.918255 169.169247 0.916385 88.164553 2.607037 -0.014702 -26.516315 -7.360187 5.026385 46.905137 6.194571 16.003506 -26.661739 0.000000 -0.000000 0.000000 5.004645 7.748996 -33.271742 1.359566 4.352117 54.580939 0.998037 -7.682500 -22.578798 0.000000 -0.000000 0.000000 -6.389631 -2.375355 30.705184 2.454539 -7.421125 -3.028668 1.491356 -3.487513 1.885429 -3.307121 17.578543 -5.921009 3.355086 9.452278 -3.391591 -10.516667 -22.375456 -6.420043 -24.082327 -34.099353 -5.543455 39.665152 -47.774417 -36.002803 9.590279 -3.854175 -18.561945 20.254011 10.557701 -0.210209 56.735278 -1.476624 19.545060 -6.435912 41.186212 19.739952 13.004973 2.295176 -1.353250 
-0.079485 -0.605921 0.913548 169.539837 0.852715 87.652944 2.832636 0.007827 -27.108984 -7.489637 5.064086 48.468997 6.057202 15.781477 -26.996083 0.000000 -0.000000 0.000000 5.153912 7.757091 -33.840989 1.196908 3.828747 56.059036 1.135138 -7.793114 -22.070400 0.000000 -0.000000 0.000000 -6.578084 -2.136759 32.252004 2.400333 -7.550956 -2.891927 1.548936 -3.534627 1.829225 -3.622729 17.550031 -6.702428 3.562454 9.248729 -4.259126 -10.324282 -23.077044 -6.511737 -22.998150 -33.932415 -6.263926 40.525480 -48.015163 -37.058845 9.745542 -4.048583 -18.478614 20.204566 11.321670 -0.354162 56.859455 -1.484056 19.715751 -6.572883 42.692631 19.621547 12.472433 2.596063 -1.406038 
-0.078632 -0.607764 0.911469 169.683074 0.863646 87.484909 2.940958 0.024036 -27.420481 -7.539942 5.073142 49.131878 6.028220 15.700561 -27.099277 0.000000 -0.000000 0.000000 5.172447 7.834128 -34.133174 1.199543 3.528678 56.639872 1.253346 -7.896719 -21.931165 0.000000 -0.000000 0.000000 -6.627322 -2.108677 32.810398 2.376976 -7.530275 -2.792234 1.539654 -3.499270 1.823843 -3.676194 17.515649 -7.173333 3.637735 9.090166 -4.453542 -10.229193 -23.337263 -6.609528 -22.576834 -33.947536 -6.496940 40.696048 -48.059830 -37.380419 9.757547 -4.148332 -18.536984 20.236990 11.620631 -0.371875 56.807242 -1.432430 19.771891 -6.669169 43.179566 19.552262 12.368381 2.674384 -1.342837 
-0.076844 -0.612068 0.907168 170.135729 1.025110 87.218521 3.196276 0.098768 -28.266395 -7.557157 4.903916 50.580742 5.948491 15.454441 -27.234129 0.000000 -0.000000 0.000000 5.296553 7.953096 -34.629118 1.133048 2.936710 57.408509 1.013794 -8.295656 -22.018129 0.000000 -0.000000 0.000000 -6.498006 -2.094340 33.980276 2.375437 -7.574206 -2.598161 1.525212 -3.454805 1.815814 -3.790167 17.424380 -8.277598 3.722824 8.824189 -4.898831 -10.231111 -24.131011 -6.668571 -21.260092 -33.826790 -7.263093 40.847050 -48.098007 -37.894504 9.620444 -4.343429 -18.610896 20.243609 12.402795 -0.263863 56.570410 -1.236144 19.737096 -6.814998 43.982316 19.515335 11.994061 2.853049 -1.266645 
-0.075582 -0.617488 0.903844 170.761178 1.128023 87.181461 3.301798 -0.003857 -29.351290 -7.520755 4.579155 51.780256 5.795092 15.012605 -26.836755 0.000000 -0.000000 0.000000 5.270468 7.720888 -35.099415 1.160266 2.645091 57.483271 0.366989 -8.626834 -22.274029 0.000000 -0.000000 0.000000 -6.084521 -1.995684 35.198130 2.333674 -7.738044 -2.487313 1.440911 -3.532356 1.676232 -4.089202 17.260130 -9.289015 4.128717 8.519894 -5.691838 -10.240648 -25.351343 -6.620054 -19.482470 -33.556108 -8.257949 40.599342 -47.859621 -38.387297 9.187794 -4.485941 -18.717169 20.098477 13.468859 -0.057209 56.401401 -1.146987 19.464862 -7.206641 44.503017 19.050404 11.785431 2.860405 -1.018676 
